<svg xmlns="http://www.w3.org/2000/svg" width="560" height="560">
  <circle cx="14.0" cy="14.0" r="2.5" fill="#1A1A1A" opacity="0.025"/>
  <circle cx="42.0" cy="14.0" r="2.5" fill="#1A1A1A" opacity="0.025"/>
  <circle cx="70.0" cy="14.0" r="2.5" fill="#1A1A1A" opacity="0.025"/>
  <circle cx="98.0" cy="14.0" r="2.5" fill="#1A1A1A" opacity="0.025"/>
  <circle cx="126.0" cy="14.0" r="2.5" fill="#1A1A1A" opacity="0.025"/>
  <circle cx="154.0" cy="14.0" r="2.5" fill="#1A1A1A" opacity="0.025"/>
  <circle cx="182.0" cy="14.0" r="2.5" fill="#1A1A1A" opacity="0.025"/>
  <circle cx="210.0" cy="14.0" r="2.5" fill="#1A1A1A" opacity="0.025"/>
  <circle cx="238.0" cy="14.0" r="2.5" fill="#1A1A1A" opacity="0.025"/>
  <circle cx="266.0" cy="14.0" r="2.5" fill="#1A1A1A" opacity="0.025"/>
  <circle cx="294.0" cy="14.0" r="2.5" fill="#1A1A1A" opacity="0.025"/>
  <circle cx="322.0" cy="14.0" r="2.5" fill="#1A1A1A" opacity="0.025"/>
  <circle cx="350.0" cy="14.0" r="2.5" fill="#1A1A1A" opacity="0.025"/>
  <circle cx="378.0" cy="14.0" r="2.5" fill="#1A1A1A" opacity="0.025"/>
  <circle cx="406.0" cy="14.0" r="2.5" fill="#1A1A1A" opacity="0.025"/>
  <circle cx="434.0" cy="14.0" r="2.5" fill="#1A1A1A" opacity="0.025"/>
  <circle cx="462.0" cy="14.0" r="2.5" fill="#1A1A1A" opacity="0.025"/>
  <circle cx="490.0" cy="14.0" r="2.5" fill="#1A1A1A" opacity="0.025"/>
  <circle cx="518.0" cy="14.0" r="2.5" fill="#1A1A1A" opacity="0.025"/>
  <circle cx="546.0" cy="14.0" r="2.5" fill="#1A1A1A" opacity="0.025"/>
  <circle cx="14.0" cy="42.0" r="2.5" fill="#1A1A1A" opacity="0.025"/>
  <circle cx="42.0" cy="42.0" r="2.5" fill="#1A1A1A" opacity="0.025"/>
  <circle cx="70.0" cy="42.0" r="2.5" fill="#1A1A1A" opacity="0.025"/>
  <circle cx="98.0" cy="42.0" r="2.5" fill="#1A1A1A" opacity="0.025"/>
  <circle cx="126.0" cy="42.0" r="2.5" fill="#1A1A1A" opacity="0.025"/>
  <circle cx="154.0" cy="42.0" r="2.5" fill="#1A1A1A" opacity="0.025"/>
  <circle cx="182.0" cy="42.0" r="2.5" fill="#1A1A1A" opacity="0.025"/>
  <circle cx="210.0" cy="42.0" r="2.5" fill="#1A1A1A" opacity="0.025"/>
  <circle cx="238.0" cy="42.0" r="2.5" fill="#1A1A1A" opacity="0.025"/>
  <circle cx="266.0" cy="42.0" r="2.5" fill="#1A1A1A" opacity="0.025"/>
  <circle cx="294.0" cy="42.0" r="2.5" fill="#1A1A1A" opacity="0.025"/>
  <circle cx="322.0" cy="42.0" r="2.5" fill="#1A1A1A" opacity="0.025"/>
  <circle cx="350.0" cy="42.0" r="2.5" fill="#1A1A1A" opacity="0.025"/>
  <circle cx="378.0" cy="42.0" r="2.5" fill="#1A1A1A" opacity="0.025"/>
  <circle cx="406.0" cy="42.0" r="2.5" fill="#1A1A1A" opacity="0.025"/>
  <circle cx="434.0" cy="42.0" r="2.5" fill="#1A1A1A" opacity="0.025"/>
  <circle cx="462.0" cy="42.0" r="2.5" fill="#1A1A1A" opacity="0.025"/>
  <circle cx="490.0" cy="42.0" r="2.5" fill="#1A1A1A" opacity="0.025"/>
  <circle cx="518.0" cy="42.0" r="2.5" fill="#1A1A1A" opacity="0.025"/>
  <circle cx="546.0" cy="42.0" r="2.5" fill="#1A1A1A" opacity="0.025"/>
  <circle cx="14.0" cy="70.0" r="2.5" fill="#1A1A1A" opacity="0.025"/>
  <circle cx="42.0" cy="70.0" r="2.5" fill="#1A1A1A" opacity="0.025"/>
  <circle cx="70.0" cy="70.0" r="2.5" fill="#1A1A1A" opacity="0.025"/>
  <circle cx="98.0" cy="70.0" r="2.5" fill="#1A1A1A" opacity="0.025"/>
  <circle cx="126.0" cy="70.0" r="2.5" fill="#1A1A1A" opacity="0.025"/>
  <circle cx="154.0" cy="70.0" r="2.5" fill="#1A1A1A" opacity="0.025"/>
  <circle cx="182.0" cy="70.0" r="2.5" fill="#1A1A1A" opacity="0.025"/>
  <circle cx="210.0" cy="70.0" r="2.5" fill="#1A1A1A" opacity="0.025"/>
  <circle cx="238.0" cy="70.0" r="2.5" fill="#1A1A1A" opacity="0.025"/>
  <circle cx="266.0" cy="70.0" r="2.5" fill="#1A1A1A" opacity="0.025"/>
  <circle cx="294.0" cy="70.0" r="2.5" fill="#1A1A1A" opacity="0.025"/>
  <circle cx="322.0" cy="70.0" r="2.5" fill="#1A1A1A" opacity="0.025"/>
  <circle cx="350.0" cy="70.0" r="2.5" fill="#1A1A1A" opacity="0.025"/>
  <circle cx="378.0" cy="70.0" r="2.5" fill="#1A1A1A" opacity="0.025"/>
  <circle cx="406.0" cy="70.0" r="2.5" fill="#1A1A1A" opacity="0.025"/>
  <circle cx="434.0" cy="70.0" r="2.5" fill="#1A1A1A" opacity="0.025"/>
  <circle cx="462.0" cy="70.0" r="2.5" fill="#1A1A1A" opacity="0.025"/>
  <circle cx="490.0" cy="70.0" r="2.5" fill="#1A1A1A" opacity="0.025"/>
  <circle cx="518.0" cy="70.0" r="2.5" fill="#1A1A1A" opacity="0.025"/>
  <circle cx="546.0" cy="70.0" r="2.5" fill="#1A1A1A" opacity="0.025"/>
  <circle cx="14.0" cy="98.0" r="2.5" fill="#1A1A1A" opacity="0.025"/>
  <circle cx="42.0" cy="98.0" r="2.5" fill="#1A1A1A" opacity="0.025"/>
  <circle cx="70.0" cy="98.0" r="2.5" fill="#1A1A1A" opacity="0.025"/>
  <circle cx="98.0" cy="98.0" r="2.5" fill="#1A1A1A" opacity="0.025"/>
  <circle cx="126.0" cy="98.0" r="2.5" fill="#1A1A1A" opacity="0.025"/>
  <circle cx="154.0" cy="98.0" r="2.5" fill="#1A1A1A" opacity="0.025"/>
  <circle cx="182.0" cy="98.0" r="2.5" fill="#1A1A1A" opacity="0.025"/>
  <circle cx="210.0" cy="98.0" r="2.5" fill="#1A1A1A" opacity="0.025"/>
  <circle cx="238.0" cy="98.0" r="2.5" fill="#1A1A1A" opacity="0.025"/>
  <circle cx="266.0" cy="98.0" r="2.5" fill="#1A1A1A" opacity="0.025"/>
  <circle cx="294.0" cy="98.0" r="2.5" fill="#1A1A1A" opacity="0.025"/>
  <circle cx="322.0" cy="98.0" r="2.5" fill="#1A1A1A" opacity="0.025"/>
  <circle cx="350.0" cy="98.0" r="2.5" fill="#1A1A1A" opacity="0.025"/>
  <circle cx="378.0" cy="98.0" r="2.5" fill="#1A1A1A" opacity="0.025"/>
  <circle cx="406.0" cy="98.0" r="2.5" fill="#1A1A1A" opacity="0.025"/>
  <circle cx="434.0" cy="98.0" r="2.5" fill="#1A1A1A" opacity="0.025"/>
  <circle cx="462.0" cy="98.0" r="2.5" fill="#1A1A1A" opacity="0.025"/>
  <circle cx="490.0" cy="98.0" r="2.5" fill="#1A1A1A" opacity="0.025"/>
  <circle cx="518.0" cy="98.0" r="2.5" fill="#1A1A1A" opacity="0.025"/>
  <circle cx="546.0" cy="98.0" r="2.5" fill="#1A1A1A" opacity="0.025"/>
  <circle cx="14.0" cy="126.0" r="2.5" fill="#1A1A1A" opacity="0.025"/>
  <circle cx="42.0" cy="126.0" r="2.5" fill="#1A1A1A" opacity="0.025"/>
  <circle cx="70.0" cy="126.0" r="2.5" fill="#1A1A1A" opacity="0.025"/>
  <circle cx="98.0" cy="126.0" r="2.5" fill="#1A1A1A" opacity="0.025"/>
  <circle cx="126.0" cy="126.0" r="2.5" fill="#1A1A1A" opacity="0.025"/>
  <circle cx="154.0" cy="126.0" r="2.5" fill="#1A1A1A" opacity="0.025"/>
  <circle cx="182.0" cy="126.0" r="2.5" fill="#1A1A1A" opacity="0.025"/>
  <circle cx="210.0" cy="126.0" r="2.5" fill="#1A1A1A" opacity="0.025"/>
  <circle cx="238.0" cy="126.0" r="2.5" fill="#1A1A1A" opacity="0.025"/>
  <circle cx="266.0" cy="126.0" r="2.5" fill="#1A1A1A" opacity="0.025"/>
  <circle cx="294.0" cy="126.0" r="2.5" fill="#1A1A1A" opacity="0.025"/>
  <circle cx="322.0" cy="126.0" r="2.5" fill="#1A1A1A" opacity="0.025"/>
  <circle cx="350.0" cy="126.0" r="2.5" fill="#1A1A1A" opacity="0.025"/>
  <circle cx="378.0" cy="126.0" r="2.5" fill="#1A1A1A" opacity="0.025"/>
  <circle cx="406.0" cy="126.0" r="2.5" fill="#1A1A1A" opacity="0.025"/>
  <circle cx="434.0" cy="126.0" r="2.5" fill="#1A1A1A" opacity="0.025"/>
  <circle cx="462.0" cy="126.0" r="2.5" fill="#1A1A1A" opacity="0.025"/>
  <circle cx="490.0" cy="126.0" r="2.5" fill="#1A1A1A" opacity="0.025"/>
  <circle cx="518.0" cy="126.0" r="2.5" fill="#1A1A1A" opacity="0.025"/>
  <circle cx="546.0" cy="126.0" r="2.5" fill="#1A1A1A" opacity="0.025"/>
  <circle cx="14.0" cy="154.0" r="2.5" fill="#1A1A1A" opacity="0.025"/>
  <circle cx="42.0" cy="154.0" r="2.5" fill="#1A1A1A" opacity="0.025"/>
  <circle cx="70.0" cy="154.0" r="2.5" fill="#1A1A1A" opacity="0.025"/>
  <circle cx="98.0" cy="154.0" r="2.5" fill="#1A1A1A" opacity="0.025"/>
  <circle cx="126.0" cy="154.0" r="2.5" fill="#1A1A1A" opacity="0.025"/>
  <circle cx="154.0" cy="154.0" r="2.5" fill="#1A1A1A" opacity="0.025"/>
  <circle cx="182.0" cy="154.0" r="2.5" fill="#1A1A1A" opacity="0.025"/>
  <circle cx="210.0" cy="154.0" r="2.5" fill="#1A1A1A" opacity="0.025"/>
  <circle cx="238.0" cy="154.0" r="2.5" fill="#1A1A1A" opacity="0.025"/>
  <circle cx="266.0" cy="154.0" r="2.5" fill="#1A1A1A" opacity="0.025"/>
  <circle cx="294.0" cy="154.0" r="2.5" fill="#1A1A1A" opacity="0.025"/>
  <circle cx="322.0" cy="154.0" r="2.5" fill="#1A1A1A" opacity="0.025"/>
  <circle cx="350.0" cy="154.0" r="2.5" fill="#1A1A1A" opacity="0.025"/>
  <circle cx="378.0" cy="154.0" r="2.5" fill="#1A1A1A" opacity="0.025"/>
  <circle cx="406.0" cy="154.0" r="2.5" fill="#1A1A1A" opacity="0.025"/>
  <circle cx="434.0" cy="154.0" r="2.5" fill="#1A1A1A" opacity="0.025"/>
  <circle cx="462.0" cy="154.0" r="2.5" fill="#1A1A1A" opacity="0.025"/>
  <circle cx="490.0" cy="154.0" r="2.5" fill="#1A1A1A" opacity="0.025"/>
  <circle cx="518.0" cy="154.0" r="2.5" fill="#1A1A1A" opacity="0.025"/>
  <circle cx="546.0" cy="154.0" r="2.5" fill="#1A1A1A" opacity="0.025"/>
  <circle cx="14.0" cy="182.0" r="2.5" fill="#1A1A1A" opacity="0.025"/>
  <circle cx="42.0" cy="182.0" r="2.5" fill="#1A1A1A" opacity="0.025"/>
  <circle cx="70.0" cy="182.0" r="2.5" fill="#1A1A1A" opacity="0.025"/>
  <circle cx="98.0" cy="182.0" r="2.5" fill="#1A1A1A" opacity="0.025"/>
  <circle cx="126.0" cy="182.0" r="2.5" fill="#1A1A1A" opacity="0.025"/>
  <circle cx="154.0" cy="182.0" r="2.5" fill="#1A1A1A" opacity="0.025"/>
  <circle cx="182.0" cy="182.0" r="2.5" fill="#1A1A1A" opacity="0.025"/>
  <circle cx="210.0" cy="182.0" r="2.5" fill="#1A1A1A" opacity="0.025"/>
  <circle cx="238.0" cy="182.0" r="2.5" fill="#1A1A1A" opacity="0.025"/>
  <circle cx="266.0" cy="182.0" r="2.5" fill="#1A1A1A" opacity="0.025"/>
  <circle cx="294.0" cy="182.0" r="2.5" fill="#1A1A1A" opacity="0.025"/>
  <circle cx="322.0" cy="182.0" r="2.5" fill="#1A1A1A" opacity="0.025"/>
  <circle cx="350.0" cy="182.0" r="2.5" fill="#1A1A1A" opacity="0.025"/>
  <circle cx="378.0" cy="182.0" r="2.5" fill="#1A1A1A" opacity="0.025"/>
  <circle cx="406.0" cy="182.0" r="2.5" fill="#1A1A1A" opacity="0.025"/>
  <circle cx="434.0" cy="182.0" r="2.5" fill="#1A1A1A" opacity="0.025"/>
  <circle cx="462.0" cy="182.0" r="2.5" fill="#1A1A1A" opacity="0.025"/>
  <circle cx="490.0" cy="182.0" r="2.5" fill="#1A1A1A" opacity="0.025"/>
  <circle cx="518.0" cy="182.0" r="2.5" fill="#1A1A1A" opacity="0.025"/>
  <circle cx="546.0" cy="182.0" r="2.5" fill="#1A1A1A" opacity="0.025"/>
  <circle cx="14.0" cy="210.0" r="2.5" fill="#1A1A1A" opacity="0.025"/>
  <circle cx="42.0" cy="210.0" r="2.5" fill="#1A1A1A" opacity="0.025"/>
  <circle cx="70.0" cy="210.0" r="2.5" fill="#1A1A1A" opacity="0.025"/>
  <circle cx="98.0" cy="210.0" r="2.5" fill="#1A1A1A" opacity="0.025"/>
  <circle cx="126.0" cy="210.0" r="2.5" fill="#1A1A1A" opacity="0.025"/>
  <circle cx="154.0" cy="210.0" r="2.5" fill="#1A1A1A" opacity="0.025"/>
  <circle cx="182.0" cy="210.0" r="2.5" fill="#1A1A1A" opacity="0.025"/>
  <circle cx="210.0" cy="210.0" r="2.5" fill="#1A1A1A" opacity="0.025"/>
  <circle cx="238.0" cy="210.0" r="2.5" fill="#1A1A1A" opacity="0.025"/>
  <circle cx="266.0" cy="210.0" r="2.5" fill="#1A1A1A" opacity="0.025"/>
  <circle cx="294.0" cy="210.0" r="2.5" fill="#1A1A1A" opacity="0.025"/>
  <circle cx="322.0" cy="210.0" r="2.5" fill="#1A1A1A" opacity="0.025"/>
  <circle cx="350.0" cy="210.0" r="2.5" fill="#1A1A1A" opacity="0.025"/>
  <circle cx="378.0" cy="210.0" r="2.5" fill="#1A1A1A" opacity="0.025"/>
  <circle cx="406.0" cy="210.0" r="2.5" fill="#1A1A1A" opacity="0.025"/>
  <circle cx="434.0" cy="210.0" r="2.5" fill="#1A1A1A" opacity="0.025"/>
  <circle cx="462.0" cy="210.0" r="2.5" fill="#1A1A1A" opacity="0.025"/>
  <circle cx="490.0" cy="210.0" r="2.5" fill="#1A1A1A" opacity="0.025"/>
  <circle cx="518.0" cy="210.0" r="2.5" fill="#1A1A1A" opacity="0.025"/>
  <circle cx="546.0" cy="210.0" r="2.5" fill="#1A1A1A" opacity="0.025"/>
  <circle cx="14.0" cy="238.0" r="2.5" fill="#1A1A1A" opacity="0.025"/>
  <circle cx="42.0" cy="238.0" r="2.5" fill="#1A1A1A" opacity="0.025"/>
  <circle cx="70.0" cy="238.0" r="2.5" fill="#1A1A1A" opacity="0.025"/>
  <circle cx="98.0" cy="238.0" r="2.5" fill="#1A1A1A" opacity="0.025"/>
  <circle cx="126.0" cy="238.0" r="2.5" fill="#1A1A1A" opacity="0.025"/>
  <circle cx="154.0" cy="238.0" r="2.5" fill="#1A1A1A" opacity="0.025"/>
  <circle cx="182.0" cy="238.0" r="2.5" fill="#1A1A1A" opacity="0.025"/>
  <circle cx="210.0" cy="238.0" r="2.5" fill="#1A1A1A" opacity="0.025"/>
  <circle cx="238.0" cy="238.0" r="2.5" fill="#1A1A1A" opacity="0.025"/>
  <circle cx="266.0" cy="238.0" r="2.5" fill="#1A1A1A" opacity="0.025"/>
  <circle cx="294.0" cy="238.0" r="2.5" fill="#1A1A1A" opacity="0.025"/>
  <circle cx="322.0" cy="238.0" r="2.5" fill="#1A1A1A" opacity="0.025"/>
  <circle cx="350.0" cy="238.0" r="2.5" fill="#1A1A1A" opacity="0.025"/>
  <circle cx="378.0" cy="238.0" r="2.5" fill="#1A1A1A" opacity="0.025"/>
  <circle cx="406.0" cy="238.0" r="2.5" fill="#1A1A1A" opacity="0.025"/>
  <circle cx="434.0" cy="238.0" r="2.5" fill="#1A1A1A" opacity="0.025"/>
  <circle cx="462.0" cy="238.0" r="2.5" fill="#1A1A1A" opacity="0.025"/>
  <circle cx="490.0" cy="238.0" r="2.5" fill="#1A1A1A" opacity="0.025"/>
  <circle cx="518.0" cy="238.0" r="2.5" fill="#1A1A1A" opacity="0.025"/>
  <circle cx="546.0" cy="238.0" r="2.5" fill="#1A1A1A" opacity="0.025"/>
  <circle cx="14.0" cy="266.0" r="2.5" fill="#1A1A1A" opacity="0.025"/>
  <circle cx="42.0" cy="266.0" r="2.5" fill="#1A1A1A" opacity="0.025"/>
  <circle cx="70.0" cy="266.0" r="2.5" fill="#1A1A1A" opacity="0.025"/>
  <circle cx="98.0" cy="266.0" r="2.5" fill="#1A1A1A" opacity="0.025"/>
  <circle cx="126.0" cy="266.0" r="2.5" fill="#1A1A1A" opacity="0.025"/>
  <circle cx="154.0" cy="266.0" r="2.5" fill="#1A1A1A" opacity="0.025"/>
  <circle cx="182.0" cy="266.0" r="2.5" fill="#1A1A1A" opacity="0.025"/>
  <circle cx="210.0" cy="266.0" r="2.5" fill="#1A1A1A" opacity="0.025"/>
  <circle cx="238.0" cy="266.0" r="2.5" fill="#1A1A1A" opacity="0.025"/>
  <circle cx="266.0" cy="266.0" r="2.5" fill="#1A1A1A" opacity="0.025"/>
  <circle cx="294.0" cy="266.0" r="2.5" fill="#1A1A1A" opacity="0.025"/>
  <circle cx="322.0" cy="266.0" r="2.5" fill="#1A1A1A" opacity="0.025"/>
  <circle cx="350.0" cy="266.0" r="2.5" fill="#1A1A1A" opacity="0.025"/>
  <circle cx="378.0" cy="266.0" r="2.5" fill="#1A1A1A" opacity="0.025"/>
  <circle cx="406.0" cy="266.0" r="2.5" fill="#1A1A1A" opacity="0.025"/>
  <circle cx="434.0" cy="266.0" r="2.5" fill="#1A1A1A" opacity="0.025"/>
  <circle cx="462.0" cy="266.0" r="2.5" fill="#1A1A1A" opacity="0.025"/>
  <circle cx="490.0" cy="266.0" r="2.5" fill="#1A1A1A" opacity="0.025"/>
  <circle cx="518.0" cy="266.0" r="2.5" fill="#1A1A1A" opacity="0.025"/>
  <circle cx="546.0" cy="266.0" r="2.5" fill="#1A1A1A" opacity="0.025"/>
  <circle cx="14.0" cy="294.0" r="2.5" fill="#1A1A1A" opacity="0.025"/>
  <circle cx="42.0" cy="294.0" r="2.5" fill="#1A1A1A" opacity="0.025"/>
  <circle cx="70.0" cy="294.0" r="2.5" fill="#1A1A1A" opacity="0.025"/>
  <circle cx="98.0" cy="294.0" r="2.5" fill="#1A1A1A" opacity="0.025"/>
  <circle cx="126.0" cy="294.0" r="2.5" fill="#1A1A1A" opacity="0.025"/>
  <circle cx="154.0" cy="294.0" r="2.5" fill="#1A1A1A" opacity="0.025"/>
  <circle cx="182.0" cy="294.0" r="2.5" fill="#1A1A1A" opacity="0.025"/>
  <circle cx="210.0" cy="294.0" r="2.5" fill="#1A1A1A" opacity="0.025"/>
  <circle cx="238.0" cy="294.0" r="2.5" fill="#1A1A1A" opacity="0.025"/>
  <circle cx="266.0" cy="294.0" r="2.5" fill="#1A1A1A" opacity="0.025"/>
  <circle cx="294.0" cy="294.0" r="2.5" fill="#1A1A1A" opacity="0.025"/>
  <circle cx="322.0" cy="294.0" r="2.5" fill="#1A1A1A" opacity="0.025"/>
  <circle cx="350.0" cy="294.0" r="2.5" fill="#1A1A1A" opacity="0.025"/>
  <circle cx="378.0" cy="294.0" r="2.5" fill="#1A1A1A" opacity="0.025"/>
  <circle cx="406.0" cy="294.0" r="2.5" fill="#1A1A1A" opacity="0.025"/>
  <circle cx="434.0" cy="294.0" r="2.5" fill="#1A1A1A" opacity="0.025"/>
  <circle cx="462.0" cy="294.0" r="2.5" fill="#1A1A1A" opacity="0.025"/>
  <circle cx="490.0" cy="294.0" r="2.5" fill="#1A1A1A" opacity="0.025"/>
  <circle cx="518.0" cy="294.0" r="2.5" fill="#1A1A1A" opacity="0.025"/>
  <circle cx="546.0" cy="294.0" r="2.5" fill="#1A1A1A" opacity="0.025"/>
  <circle cx="14.0" cy="322.0" r="2.5" fill="#1A1A1A" opacity="0.025"/>
  <circle cx="42.0" cy="322.0" r="2.5" fill="#1A1A1A" opacity="0.025"/>
  <circle cx="70.0" cy="322.0" r="2.5" fill="#1A1A1A" opacity="0.025"/>
  <circle cx="98.0" cy="322.0" r="2.5" fill="#1A1A1A" opacity="0.025"/>
  <circle cx="126.0" cy="322.0" r="2.5" fill="#1A1A1A" opacity="0.025"/>
  <circle cx="154.0" cy="322.0" r="2.5" fill="#1A1A1A" opacity="0.025"/>
  <circle cx="182.0" cy="322.0" r="2.5" fill="#1A1A1A" opacity="0.025"/>
  <circle cx="210.0" cy="322.0" r="2.5" fill="#1A1A1A" opacity="0.025"/>
  <circle cx="238.0" cy="322.0" r="2.5" fill="#1A1A1A" opacity="0.025"/>
  <circle cx="266.0" cy="322.0" r="2.5" fill="#1A1A1A" opacity="0.025"/>
  <circle cx="294.0" cy="322.0" r="2.5" fill="#1A1A1A" opacity="0.025"/>
  <circle cx="322.0" cy="322.0" r="2.5" fill="#1A1A1A" opacity="0.025"/>
  <circle cx="350.0" cy="322.0" r="2.5" fill="#1A1A1A" opacity="0.025"/>
  <circle cx="378.0" cy="322.0" r="2.5" fill="#1A1A1A" opacity="0.025"/>
  <circle cx="406.0" cy="322.0" r="2.5" fill="#1A1A1A" opacity="0.025"/>
  <circle cx="434.0" cy="322.0" r="2.5" fill="#1A1A1A" opacity="0.025"/>
  <circle cx="462.0" cy="322.0" r="2.5" fill="#1A1A1A" opacity="0.025"/>
  <circle cx="490.0" cy="322.0" r="2.5" fill="#1A1A1A" opacity="0.025"/>
  <circle cx="518.0" cy="322.0" r="2.5" fill="#1A1A1A" opacity="0.025"/>
  <circle cx="546.0" cy="322.0" r="2.5" fill="#1A1A1A" opacity="0.025"/>
  <circle cx="14.0" cy="350.0" r="2.5" fill="#1A1A1A" opacity="0.025"/>
  <circle cx="42.0" cy="350.0" r="2.5" fill="#1A1A1A" opacity="0.025"/>
  <circle cx="70.0" cy="350.0" r="2.5" fill="#1A1A1A" opacity="0.025"/>
  <circle cx="98.0" cy="350.0" r="2.5" fill="#1A1A1A" opacity="0.025"/>
  <circle cx="126.0" cy="350.0" r="2.5" fill="#1A1A1A" opacity="0.025"/>
  <circle cx="154.0" cy="350.0" r="2.5" fill="#1A1A1A" opacity="0.025"/>
  <circle cx="182.0" cy="350.0" r="2.5" fill="#1A1A1A" opacity="0.025"/>
  <circle cx="210.0" cy="350.0" r="2.5" fill="#1A1A1A" opacity="0.025"/>
  <circle cx="238.0" cy="350.0" r="2.5" fill="#1A1A1A" opacity="0.025"/>
  <circle cx="266.0" cy="350.0" r="2.5" fill="#1A1A1A" opacity="0.025"/>
  <circle cx="294.0" cy="350.0" r="2.5" fill="#1A1A1A" opacity="0.025"/>
  <circle cx="322.0" cy="350.0" r="2.5" fill="#1A1A1A" opacity="0.025"/>
  <circle cx="350.0" cy="350.0" r="2.5" fill="#1A1A1A" opacity="0.025"/>
  <circle cx="378.0" cy="350.0" r="2.5" fill="#1A1A1A" opacity="0.025"/>
  <circle cx="406.0" cy="350.0" r="2.5" fill="#1A1A1A" opacity="0.025"/>
  <circle cx="434.0" cy="350.0" r="2.5" fill="#1A1A1A" opacity="0.025"/>
  <circle cx="462.0" cy="350.0" r="2.5" fill="#1A1A1A" opacity="0.025"/>
  <circle cx="490.0" cy="350.0" r="2.5" fill="#1A1A1A" opacity="0.025"/>
  <circle cx="518.0" cy="350.0" r="2.5" fill="#1A1A1A" opacity="0.025"/>
  <circle cx="546.0" cy="350.0" r="2.5" fill="#1A1A1A" opacity="0.025"/>
  <circle cx="14.0" cy="378.0" r="2.5" fill="#1A1A1A" opacity="0.025"/>
  <circle cx="42.0" cy="378.0" r="2.5" fill="#1A1A1A" opacity="0.025"/>
  <circle cx="70.0" cy="378.0" r="2.5" fill="#1A1A1A" opacity="0.025"/>
  <circle cx="98.0" cy="378.0" r="2.5" fill="#1A1A1A" opacity="0.025"/>
  <circle cx="126.0" cy="378.0" r="2.5" fill="#1A1A1A" opacity="0.025"/>
  <circle cx="154.0" cy="378.0" r="2.5" fill="#1A1A1A" opacity="0.025"/>
  <circle cx="182.0" cy="378.0" r="2.5" fill="#1A1A1A" opacity="0.025"/>
  <circle cx="210.0" cy="378.0" r="2.5" fill="#1A1A1A" opacity="0.025"/>
  <circle cx="238.0" cy="378.0" r="2.5" fill="#1A1A1A" opacity="0.025"/>
  <circle cx="266.0" cy="378.0" r="2.5" fill="#1A1A1A" opacity="0.025"/>
  <circle cx="294.0" cy="378.0" r="2.5" fill="#1A1A1A" opacity="0.025"/>
  <circle cx="322.0" cy="378.0" r="2.5" fill="#1A1A1A" opacity="0.025"/>
  <circle cx="350.0" cy="378.0" r="2.5" fill="#1A1A1A" opacity="0.025"/>
  <circle cx="378.0" cy="378.0" r="2.5" fill="#1A1A1A" opacity="0.025"/>
  <circle cx="406.0" cy="378.0" r="2.5" fill="#1A1A1A" opacity="0.025"/>
  <circle cx="434.0" cy="378.0" r="2.5" fill="#1A1A1A" opacity="0.025"/>
  <circle cx="462.0" cy="378.0" r="2.5" fill="#1A1A1A" opacity="0.025"/>
  <circle cx="490.0" cy="378.0" r="2.5" fill="#1A1A1A" opacity="0.025"/>
  <circle cx="518.0" cy="378.0" r="2.5" fill="#1A1A1A" opacity="0.025"/>
  <circle cx="546.0" cy="378.0" r="2.5" fill="#1A1A1A" opacity="0.025"/>
  <circle cx="14.0" cy="406.0" r="2.5" fill="#1A1A1A" opacity="0.025"/>
  <circle cx="42.0" cy="406.0" r="2.5" fill="#1A1A1A" opacity="0.025"/>
  <circle cx="70.0" cy="406.0" r="2.5" fill="#1A1A1A" opacity="0.025"/>
  <circle cx="98.0" cy="406.0" r="2.5" fill="#1A1A1A" opacity="0.025"/>
  <circle cx="126.0" cy="406.0" r="2.5" fill="#1A1A1A" opacity="0.025"/>
  <circle cx="154.0" cy="406.0" r="2.5" fill="#1A1A1A" opacity="0.025"/>
  <circle cx="182.0" cy="406.0" r="2.5" fill="#1A1A1A" opacity="0.025"/>
  <circle cx="210.0" cy="406.0" r="2.5" fill="#1A1A1A" opacity="0.025"/>
  <circle cx="238.0" cy="406.0" r="2.5" fill="#1A1A1A" opacity="0.025"/>
  <circle cx="266.0" cy="406.0" r="2.5" fill="#1A1A1A" opacity="0.025"/>
  <circle cx="294.0" cy="406.0" r="2.5" fill="#1A1A1A" opacity="0.025"/>
  <circle cx="322.0" cy="406.0" r="2.5" fill="#1A1A1A" opacity="0.025"/>
  <circle cx="350.0" cy="406.0" r="2.5" fill="#1A1A1A" opacity="0.025"/>
  <circle cx="378.0" cy="406.0" r="2.5" fill="#1A1A1A" opacity="0.025"/>
  <circle cx="406.0" cy="406.0" r="2.5" fill="#1A1A1A" opacity="0.025"/>
  <circle cx="434.0" cy="406.0" r="2.5" fill="#1A1A1A" opacity="0.025"/>
  <circle cx="462.0" cy="406.0" r="2.5" fill="#1A1A1A" opacity="0.025"/>
  <circle cx="490.0" cy="406.0" r="2.5" fill="#1A1A1A" opacity="0.025"/>
  <circle cx="518.0" cy="406.0" r="2.5" fill="#1A1A1A" opacity="0.025"/>
  <circle cx="546.0" cy="406.0" r="2.5" fill="#1A1A1A" opacity="0.025"/>
  <circle cx="14.0" cy="434.0" r="2.5" fill="#1A1A1A" opacity="0.025"/>
  <circle cx="42.0" cy="434.0" r="2.5" fill="#1A1A1A" opacity="0.025"/>
  <circle cx="70.0" cy="434.0" r="2.5" fill="#1A1A1A" opacity="0.025"/>
  <circle cx="98.0" cy="434.0" r="2.5" fill="#1A1A1A" opacity="0.025"/>
  <circle cx="126.0" cy="434.0" r="2.5" fill="#1A1A1A" opacity="0.025"/>
  <circle cx="154.0" cy="434.0" r="2.5" fill="#1A1A1A" opacity="0.025"/>
  <circle cx="182.0" cy="434.0" r="2.5" fill="#1A1A1A" opacity="0.025"/>
  <circle cx="210.0" cy="434.0" r="2.5" fill="#1A1A1A" opacity="0.025"/>
  <circle cx="238.0" cy="434.0" r="2.5" fill="#1A1A1A" opacity="0.025"/>
  <circle cx="266.0" cy="434.0" r="2.5" fill="#1A1A1A" opacity="0.025"/>
  <circle cx="294.0" cy="434.0" r="2.5" fill="#1A1A1A" opacity="0.025"/>
  <circle cx="322.0" cy="434.0" r="2.5" fill="#1A1A1A" opacity="0.025"/>
  <circle cx="350.0" cy="434.0" r="2.5" fill="#1A1A1A" opacity="0.025"/>
  <circle cx="378.0" cy="434.0" r="2.5" fill="#1A1A1A" opacity="0.025"/>
  <circle cx="406.0" cy="434.0" r="2.5" fill="#1A1A1A" opacity="0.025"/>
  <circle cx="434.0" cy="434.0" r="2.5" fill="#1A1A1A" opacity="0.025"/>
  <circle cx="462.0" cy="434.0" r="2.5" fill="#1A1A1A" opacity="0.025"/>
  <circle cx="490.0" cy="434.0" r="2.5" fill="#1A1A1A" opacity="0.025"/>
  <circle cx="518.0" cy="434.0" r="2.5" fill="#1A1A1A" opacity="0.025"/>
  <circle cx="546.0" cy="434.0" r="2.5" fill="#1A1A1A" opacity="0.025"/>
  <circle cx="14.0" cy="462.0" r="2.5" fill="#1A1A1A" opacity="0.025"/>
  <circle cx="42.0" cy="462.0" r="2.5" fill="#1A1A1A" opacity="0.025"/>
  <circle cx="70.0" cy="462.0" r="2.5" fill="#1A1A1A" opacity="0.025"/>
  <circle cx="98.0" cy="462.0" r="2.5" fill="#1A1A1A" opacity="0.025"/>
  <circle cx="126.0" cy="462.0" r="2.5" fill="#1A1A1A" opacity="0.025"/>
  <circle cx="154.0" cy="462.0" r="2.5" fill="#1A1A1A" opacity="0.025"/>
  <circle cx="182.0" cy="462.0" r="2.5" fill="#1A1A1A" opacity="0.025"/>
  <circle cx="210.0" cy="462.0" r="2.5" fill="#1A1A1A" opacity="0.025"/>
  <circle cx="238.0" cy="462.0" r="2.5" fill="#1A1A1A" opacity="0.025"/>
  <circle cx="266.0" cy="462.0" r="2.5" fill="#1A1A1A" opacity="0.025"/>
  <circle cx="294.0" cy="462.0" r="2.5" fill="#1A1A1A" opacity="0.025"/>
  <circle cx="322.0" cy="462.0" r="2.5" fill="#1A1A1A" opacity="0.025"/>
  <circle cx="350.0" cy="462.0" r="2.5" fill="#1A1A1A" opacity="0.025"/>
  <circle cx="378.0" cy="462.0" r="2.5" fill="#1A1A1A" opacity="0.025"/>
  <circle cx="406.0" cy="462.0" r="2.5" fill="#1A1A1A" opacity="0.025"/>
  <circle cx="434.0" cy="462.0" r="2.5" fill="#1A1A1A" opacity="0.025"/>
  <circle cx="462.0" cy="462.0" r="2.5" fill="#1A1A1A" opacity="0.025"/>
  <circle cx="490.0" cy="462.0" r="2.5" fill="#1A1A1A" opacity="0.025"/>
  <circle cx="518.0" cy="462.0" r="2.5" fill="#1A1A1A" opacity="0.025"/>
  <circle cx="546.0" cy="462.0" r="2.5" fill="#1A1A1A" opacity="0.025"/>
  <circle cx="14.0" cy="490.0" r="2.5" fill="#1A1A1A" opacity="0.025"/>
  <circle cx="42.0" cy="490.0" r="2.5" fill="#1A1A1A" opacity="0.025"/>
  <circle cx="70.0" cy="490.0" r="2.5" fill="#1A1A1A" opacity="0.025"/>
  <circle cx="98.0" cy="490.0" r="2.5" fill="#1A1A1A" opacity="0.025"/>
  <circle cx="126.0" cy="490.0" r="2.5" fill="#1A1A1A" opacity="0.025"/>
  <circle cx="154.0" cy="490.0" r="2.5" fill="#1A1A1A" opacity="0.025"/>
  <circle cx="182.0" cy="490.0" r="2.5" fill="#1A1A1A" opacity="0.025"/>
  <circle cx="210.0" cy="490.0" r="2.5" fill="#1A1A1A" opacity="0.025"/>
  <circle cx="238.0" cy="490.0" r="2.5" fill="#1A1A1A" opacity="0.025"/>
  <circle cx="266.0" cy="490.0" r="2.5" fill="#1A1A1A" opacity="0.025"/>
  <circle cx="294.0" cy="490.0" r="2.5" fill="#1A1A1A" opacity="0.025"/>
  <circle cx="322.0" cy="490.0" r="2.5" fill="#1A1A1A" opacity="0.025"/>
  <circle cx="350.0" cy="490.0" r="2.5" fill="#1A1A1A" opacity="0.025"/>
  <circle cx="378.0" cy="490.0" r="2.5" fill="#1A1A1A" opacity="0.025"/>
  <circle cx="406.0" cy="490.0" r="2.5" fill="#1A1A1A" opacity="0.025"/>
  <circle cx="434.0" cy="490.0" r="2.5" fill="#1A1A1A" opacity="0.025"/>
  <circle cx="462.0" cy="490.0" r="2.5" fill="#1A1A1A" opacity="0.025"/>
  <circle cx="490.0" cy="490.0" r="2.5" fill="#1A1A1A" opacity="0.025"/>
  <circle cx="518.0" cy="490.0" r="2.5" fill="#1A1A1A" opacity="0.025"/>
  <circle cx="546.0" cy="490.0" r="2.5" fill="#1A1A1A" opacity="0.025"/>
  <circle cx="14.0" cy="518.0" r="2.5" fill="#1A1A1A" opacity="0.025"/>
  <circle cx="42.0" cy="518.0" r="2.5" fill="#1A1A1A" opacity="0.025"/>
  <circle cx="70.0" cy="518.0" r="2.5" fill="#1A1A1A" opacity="0.025"/>
  <circle cx="98.0" cy="518.0" r="2.5" fill="#1A1A1A" opacity="0.025"/>
  <circle cx="126.0" cy="518.0" r="2.5" fill="#1A1A1A" opacity="0.025"/>
  <circle cx="154.0" cy="518.0" r="2.5" fill="#1A1A1A" opacity="0.025"/>
  <circle cx="182.0" cy="518.0" r="2.5" fill="#1A1A1A" opacity="0.025"/>
  <circle cx="210.0" cy="518.0" r="2.5" fill="#1A1A1A" opacity="0.025"/>
  <circle cx="238.0" cy="518.0" r="2.5" fill="#1A1A1A" opacity="0.025"/>
  <circle cx="266.0" cy="518.0" r="2.5" fill="#1A1A1A" opacity="0.025"/>
  <circle cx="294.0" cy="518.0" r="2.5" fill="#1A1A1A" opacity="0.025"/>
  <circle cx="322.0" cy="518.0" r="2.5" fill="#1A1A1A" opacity="0.025"/>
  <circle cx="350.0" cy="518.0" r="2.5" fill="#1A1A1A" opacity="0.025"/>
  <circle cx="378.0" cy="518.0" r="2.5" fill="#1A1A1A" opacity="0.025"/>
  <circle cx="406.0" cy="518.0" r="2.5" fill="#1A1A1A" opacity="0.025"/>
  <circle cx="434.0" cy="518.0" r="2.5" fill="#1A1A1A" opacity="0.025"/>
  <circle cx="462.0" cy="518.0" r="2.5" fill="#1A1A1A" opacity="0.025"/>
  <circle cx="490.0" cy="518.0" r="2.5" fill="#1A1A1A" opacity="0.025"/>
  <circle cx="518.0" cy="518.0" r="2.5" fill="#1A1A1A" opacity="0.025"/>
  <circle cx="546.0" cy="518.0" r="2.5" fill="#1A1A1A" opacity="0.025"/>
  <circle cx="14.0" cy="546.0" r="2.5" fill="#1A1A1A" opacity="0.025"/>
  <circle cx="42.0" cy="546.0" r="2.5" fill="#1A1A1A" opacity="0.025"/>
  <circle cx="70.0" cy="546.0" r="2.5" fill="#1A1A1A" opacity="0.025"/>
  <circle cx="98.0" cy="546.0" r="2.5" fill="#1A1A1A" opacity="0.025"/>
  <circle cx="126.0" cy="546.0" r="2.5" fill="#1A1A1A" opacity="0.025"/>
  <circle cx="154.0" cy="546.0" r="2.5" fill="#1A1A1A" opacity="0.025"/>
  <circle cx="182.0" cy="546.0" r="2.5" fill="#1A1A1A" opacity="0.025"/>
  <circle cx="210.0" cy="546.0" r="2.5" fill="#1A1A1A" opacity="0.025"/>
  <circle cx="238.0" cy="546.0" r="2.5" fill="#1A1A1A" opacity="0.025"/>
  <circle cx="266.0" cy="546.0" r="2.5" fill="#1A1A1A" opacity="0.025"/>
  <circle cx="294.0" cy="546.0" r="2.5" fill="#1A1A1A" opacity="0.025"/>
  <circle cx="322.0" cy="546.0" r="2.5" fill="#1A1A1A" opacity="0.025"/>
  <circle cx="350.0" cy="546.0" r="2.5" fill="#1A1A1A" opacity="0.025"/>
  <circle cx="378.0" cy="546.0" r="2.5" fill="#1A1A1A" opacity="0.025"/>
  <circle cx="406.0" cy="546.0" r="2.5" fill="#1A1A1A" opacity="0.025"/>
  <circle cx="434.0" cy="546.0" r="2.5" fill="#1A1A1A" opacity="0.025"/>
  <circle cx="462.0" cy="546.0" r="2.5" fill="#1A1A1A" opacity="0.025"/>
  <circle cx="490.0" cy="546.0" r="2.5" fill="#1A1A1A" opacity="0.025"/>
  <circle cx="518.0" cy="546.0" r="2.5" fill="#1A1A1A" opacity="0.025"/>
  <circle cx="546.0" cy="546.0" r="2.5" fill="#1A1A1A" opacity="0.025"/>
</svg>
